<svg xmlns="http://www.w3.org/2000/svg" width="920" height="470" viewBox="0 0 920 470" role="img">
  <rect width="920" height="470" fill="white"/>
<rect x="0.0" y="0.0" width="920.0" height="470.0" rx="0" fill="white" stroke="#e5edf5" stroke-width="1.0"/>
<text x="34.0" y="38.0" font-family="Inter, Segoe UI, Arial, sans-serif" font-size="24" font-weight="700" fill="#172033" text-anchor="start">Approval policy: unsafe accepted traces</text>
<text x="34.0" y="62.0" font-family="Inter, Segoe UI, Arial, sans-serif" font-size="13" font-weight="400" fill="#64748b" text-anchor="start">Schema validity does not remember whether approval happened.</text>
<line x1="82.0" y1="78.0" x2="82.0" y2="388.0" stroke="#9aa8b7" stroke-width="1.2"/>
<line x1="82.0" y1="388.0" x2="888.0" y2="388.0" stroke="#9aa8b7" stroke-width="1.2"/>
<line x1="82.0" y1="388.0" x2="888.0" y2="388.0" stroke="#d9e2ec" stroke-width="0.9"/>
<text x="70.0" y="392.0" font-family="Inter, Segoe UI, Arial, sans-serif" font-size="11" font-weight="400" fill="#64748b" text-anchor="end">0.00</text>
<line x1="82.0" y1="326.0" x2="888.0" y2="326.0" stroke="#d9e2ec" stroke-width="0.9"/>
<text x="70.0" y="330.0" font-family="Inter, Segoe UI, Arial, sans-serif" font-size="11" font-weight="400" fill="#64748b" text-anchor="end">0.10</text>
<line x1="82.0" y1="264.0" x2="888.0" y2="264.0" stroke="#d9e2ec" stroke-width="0.9"/>
<text x="70.0" y="268.0" font-family="Inter, Segoe UI, Arial, sans-serif" font-size="11" font-weight="400" fill="#64748b" text-anchor="end">0.20</text>
<line x1="82.0" y1="202.0" x2="888.0" y2="202.0" stroke="#d9e2ec" stroke-width="0.9"/>
<text x="70.0" y="206.0" font-family="Inter, Segoe UI, Arial, sans-serif" font-size="11" font-weight="400" fill="#64748b" text-anchor="end">0.30</text>
<line x1="82.0" y1="140.0" x2="888.0" y2="140.0" stroke="#d9e2ec" stroke-width="0.9"/>
<text x="70.0" y="144.0" font-family="Inter, Segoe UI, Arial, sans-serif" font-size="11" font-weight="400" fill="#64748b" text-anchor="end">0.40</text>
<line x1="82.0" y1="78.0" x2="888.0" y2="78.0" stroke="#d9e2ec" stroke-width="0.9"/>
<text x="70.0" y="82.0" font-family="Inter, Segoe UI, Arial, sans-serif" font-size="11" font-weight="400" fill="#64748b" text-anchor="end">0.50</text>
<line x1="82.0" y1="388.0" x2="82.0" y2="393.0" stroke="#9aa8b7" stroke-width="1"/>
<text x="82.0" y="412.0" font-family="Inter, Segoe UI, Arial, sans-serif" font-size="11" font-weight="400" fill="#64748b" text-anchor="middle">0.0</text>
<line x1="243.2" y1="388.0" x2="243.2" y2="393.0" stroke="#9aa8b7" stroke-width="1"/>
<text x="243.2" y="412.0" font-family="Inter, Segoe UI, Arial, sans-serif" font-size="11" font-weight="400" fill="#64748b" text-anchor="middle">0.2</text>
<line x1="404.4" y1="388.0" x2="404.4" y2="393.0" stroke="#9aa8b7" stroke-width="1"/>
<text x="404.4" y="412.0" font-family="Inter, Segoe UI, Arial, sans-serif" font-size="11" font-weight="400" fill="#64748b" text-anchor="middle">0.4</text>
<line x1="565.6" y1="388.0" x2="565.6" y2="393.0" stroke="#9aa8b7" stroke-width="1"/>
<text x="565.6" y="412.0" font-family="Inter, Segoe UI, Arial, sans-serif" font-size="11" font-weight="400" fill="#64748b" text-anchor="middle">0.6</text>
<line x1="726.8" y1="388.0" x2="726.8" y2="393.0" stroke="#9aa8b7" stroke-width="1"/>
<text x="726.8" y="412.0" font-family="Inter, Segoe UI, Arial, sans-serif" font-size="11" font-weight="400" fill="#64748b" text-anchor="middle">0.8</text>
<line x1="888.0" y1="388.0" x2="888.0" y2="393.0" stroke="#9aa8b7" stroke-width="1"/>
<text x="888.0" y="412.0" font-family="Inter, Segoe UI, Arial, sans-serif" font-size="11" font-weight="400" fill="#64748b" text-anchor="middle">1.0</text>
<polyline points="82.0,388.0 162.6,362.1 243.2,337.5 323.8,305.0 404.4,282.2 485.0,244.2 565.6,213.4 646.2,198.7 726.8,169.0 807.4,139.3 888.0,106.3" fill="none" stroke="#8a3d2e" stroke-width="2.3" stroke-linejoin="round" stroke-linecap="round"/>
<circle cx="82.0" cy="388.0" r="3.2" fill="#8a3d2e" stroke="white" stroke-width="1.3"/>
<circle cx="162.6" cy="362.1" r="3.2" fill="#8a3d2e" stroke="white" stroke-width="1.3"/>
<circle cx="243.2" cy="337.5" r="3.2" fill="#8a3d2e" stroke="white" stroke-width="1.3"/>
<circle cx="323.8" cy="305.0" r="3.2" fill="#8a3d2e" stroke="white" stroke-width="1.3"/>
<circle cx="404.4" cy="282.2" r="3.2" fill="#8a3d2e" stroke="white" stroke-width="1.3"/>
<circle cx="485.0" cy="244.2" r="3.2" fill="#8a3d2e" stroke="white" stroke-width="1.3"/>
<circle cx="565.6" cy="213.4" r="3.2" fill="#8a3d2e" stroke="white" stroke-width="1.3"/>
<circle cx="646.2" cy="198.7" r="3.2" fill="#8a3d2e" stroke="white" stroke-width="1.3"/>
<circle cx="726.8" cy="169.0" r="3.2" fill="#8a3d2e" stroke="white" stroke-width="1.3"/>
<circle cx="807.4" cy="139.3" r="3.2" fill="#8a3d2e" stroke="white" stroke-width="1.3"/>
<circle cx="888.0" cy="106.3" r="3.2" fill="#8a3d2e" stroke="white" stroke-width="1.3"/>
<polyline points="82.0,388.0 162.6,362.1 243.2,337.5 323.8,305.0 404.4,282.2 485.0,244.2 565.6,213.4 646.2,198.7 726.8,169.0 807.4,139.3 888.0,106.3" fill="none" stroke="#6b5b95" stroke-width="2.3" stroke-linejoin="round" stroke-linecap="round"/>
<circle cx="82.0" cy="388.0" r="3.2" fill="#6b5b95" stroke="white" stroke-width="1.3"/>
<circle cx="162.6" cy="362.1" r="3.2" fill="#6b5b95" stroke="white" stroke-width="1.3"/>
<circle cx="243.2" cy="337.5" r="3.2" fill="#6b5b95" stroke="white" stroke-width="1.3"/>
<circle cx="323.8" cy="305.0" r="3.2" fill="#6b5b95" stroke="white" stroke-width="1.3"/>
<circle cx="404.4" cy="282.2" r="3.2" fill="#6b5b95" stroke="white" stroke-width="1.3"/>
<circle cx="485.0" cy="244.2" r="3.2" fill="#6b5b95" stroke="white" stroke-width="1.3"/>
<circle cx="565.6" cy="213.4" r="3.2" fill="#6b5b95" stroke="white" stroke-width="1.3"/>
<circle cx="646.2" cy="198.7" r="3.2" fill="#6b5b95" stroke="white" stroke-width="1.3"/>
<circle cx="726.8" cy="169.0" r="3.2" fill="#6b5b95" stroke="white" stroke-width="1.3"/>
<circle cx="807.4" cy="139.3" r="3.2" fill="#6b5b95" stroke="white" stroke-width="1.3"/>
<circle cx="888.0" cy="106.3" r="3.2" fill="#6b5b95" stroke="white" stroke-width="1.3"/>
<polyline points="82.0,388.0 162.6,388.0 243.2,388.0 323.8,388.0 404.4,388.0 485.0,388.0 565.6,388.0 646.2,388.0 726.8,388.0 807.4,388.0 888.0,388.0" fill="none" stroke="#1f7a5a" stroke-width="2.3" stroke-linejoin="round" stroke-linecap="round"/>
<circle cx="82.0" cy="388.0" r="3.2" fill="#1f7a5a" stroke="white" stroke-width="1.3"/>
<circle cx="162.6" cy="388.0" r="3.2" fill="#1f7a5a" stroke="white" stroke-width="1.3"/>
<circle cx="243.2" cy="388.0" r="3.2" fill="#1f7a5a" stroke="white" stroke-width="1.3"/>
<circle cx="323.8" cy="388.0" r="3.2" fill="#1f7a5a" stroke="white" stroke-width="1.3"/>
<circle cx="404.4" cy="388.0" r="3.2" fill="#1f7a5a" stroke="white" stroke-width="1.3"/>
<circle cx="485.0" cy="388.0" r="3.2" fill="#1f7a5a" stroke="white" stroke-width="1.3"/>
<circle cx="565.6" cy="388.0" r="3.2" fill="#1f7a5a" stroke="white" stroke-width="1.3"/>
<circle cx="646.2" cy="388.0" r="3.2" fill="#1f7a5a" stroke="white" stroke-width="1.3"/>
<circle cx="726.8" cy="388.0" r="3.2" fill="#1f7a5a" stroke="white" stroke-width="1.3"/>
<circle cx="807.4" cy="388.0" r="3.2" fill="#1f7a5a" stroke="white" stroke-width="1.3"/>
<circle cx="888.0" cy="388.0" r="3.2" fill="#1f7a5a" stroke="white" stroke-width="1.3"/>
<text x="485.0" y="446.0" font-family="Inter, Segoe UI, Arial, sans-serif" font-size="12" font-weight="400" fill="#64748b" text-anchor="middle">proposal noise alpha</text>
<text x="24.0" y="233.0" font-family="Inter, Segoe UI, Arial, sans-serif" font-size="12" font-weight="400" fill="#64748b" text-anchor="middle">unsafe rate</text>
<rect x="642.0" y="32.0" width="242.0" height="82.0" rx="8" fill="white" stroke="#d9e2ec" stroke-width="1.0"/>
<line x1="658.0" y1="52.0" x2="686.0" y2="52.0" stroke="#8a3d2e" stroke-width="2.5"/>
<text x="696.0" y="56.0" font-family="Inter, Segoe UI, Arial, sans-serif" font-size="12" font-weight="400" fill="#172033" text-anchor="start">No guard</text>
<line x1="658.0" y1="72.0" x2="686.0" y2="72.0" stroke="#6b5b95" stroke-width="2.5"/>
<text x="696.0" y="76.0" font-family="Inter, Segoe UI, Arial, sans-serif" font-size="12" font-weight="400" fill="#172033" text-anchor="start">Schema guard</text>
<line x1="658.0" y1="92.0" x2="686.0" y2="92.0" stroke="#1f7a5a" stroke-width="2.5"/>
<text x="696.0" y="96.0" font-family="Inter, Segoe UI, Arial, sans-serif" font-size="12" font-weight="400" fill="#172033" text-anchor="start">Finite-state guard</text>
</svg>
